<?xml version="1.0" encoding="utf-8"?>
<!-- Generator: Adobe Illustrator 22.1.0, SVG Export Plug-In . SVG Version: 6.00 Build 0)  -->
<svg version="1.1" id="Calque_1" xmlns="http://www.w3.org/2000/svg" xmlns:xlink="http://www.w3.org/1999/xlink" x="0px" y="0px"
	 viewBox="0 0 612 792" style="enable-background:new 0 0 612 792;" xml:space="preserve">
<style type="text/css">
	.st0{fill:#FEFEFE;}
	.st1{fill:#808080;}
	.st2{fill:#7F7F7F;}
</style>
<g>
	<g>
		<ellipse class="st0" cx="307.5" cy="397" rx="123.7" ry="117.4"/>
		<path class="st1" d="M319.2,396.7c-2.6-3-6.5-4.6-9.3-7.4c-2.7-2.8-6.7-4.1-8.8-7.8c0.4-0.4,0.8-0.9,1.3-1.4
			c3.7,2.2,7.1,4.6,10,7.8c2.3,0.3,4.5,0.3,6.6-1.4c0-0.7-0.1-1.5,0-2.3c0.6-4-0.8-7.1-3.3-10.2c-1.5-1.9-2.5-4.2-2.9-6.8
			c-0.3-2.2-1.9-4.2-2.9-6.3c-2.8,1.2-5.4,2.2-7.8,3.5c-1.8,1-3.4,1.1-4.8-0.6c-0.7-0.9-1.7-0.7-2.5-1.4c-1.5-1.3-2.7-0.3-4,1.2
			c0.8,0.5,1.6,1,3,1.8c-3.8,1.1-6.8,2.2-8.5,4.6c-1.4-0.1-1.7-1-2.6-1.6c0.7-0.6,1.2-1.2,1.9-1.6c4-2.6,5.5-7,6.9-11.1
			c1.1-3.3,1-7.1-0.1-10.6c-1.1-3.6-0.5-6.5,2.2-9.2c2.6-2.7,5.7-4.7,8.6-6.9c2.9-2.2,5.3-5,7.9-7.6c1.2-1.1,1.4-2.7,2.3-4.4
			c3.3,0.7,6.3-1.3,9.8-1.1c3.3,0.3,6.7,0.2,10.1-0.7c3.2-0.9,6.9-0.2,10.2-0.2c2.3,2.3,2.3,5.4,3.4,7.9c1.9,4.5,3.1,9.4,4.6,14.1
			c1.5,4.6,2.9,9.1,4.5,13.6c1.7,4.6,3,9.4,4.8,14c1.2,3,2,6.1,3.1,9.2c1.4,3.8,1.4,3.9-0.4,8c-0.4,1-0.5,1.8-0.7,3
			C347.9,388.7,333.7,392.7,319.2,396.7z"/>
		<path class="st1" d="M223.4,478.8c-2.4-5.6-2.5-11.4-2.5-17.2c0-2.5,1.4-4.1,2.7-5.9c1.2-1.7,2.2-3,4.4-3.9
			c4.7-2,9.7-2.2,14.4-3.9c2.4-0.9,5.3-0.6,7.4-2.8c0.7-0.8,2.4-1.3,4-1.2c2.5,0.2,5,0.4,7.5,0c2.7-0.4,5.4-0.8,8-2.4
			c3.2-1.9,6.3-3.9,9.7-5.5c3.6-1.7,6.1-1.3,9.1,1.5c0.8,0.8,1.7,1.6,2.5,2.5c2.2,0.3,4.5-0.4,6.6,1c0.6,0.4,1.8,0.1,2.8-0.2
			c5.2-1.7,5.2-1.6,9.6-0.7c1.6-2.5,4.5-3.9,7.2-4.9c1.8-0.7,2-1.8,3-3.6c0.2,2.3,1,3.8,1.6,5.2c3.6,1.1,6.4-0.7,9.4-1.8
			c2.5-0.9,4.9-1.9,7.3-3c2-0.9,3.9-1.9,6-3c-0.6-1.4-1.2-2.6-1.7-3.9c1.9-0.5,2.3,1.3,3.2,1.7c2.4-1.6,4.2-3.2,7.6-2
			c2.6,0.9,5.5,0.1,8.2-1.8c7.8-5.5,16.2-10.1,24-15.6c1.8-1.3,4-1.8,5.6-3.4c0.3-0.3,1.3,0,1.8,0c0.9,0.8,0.3,1.7,0.5,2.5
			c-1.4,0.5-2.6,1.5-4.3,1.6c-2.3,0.1-3.1,1.4-2.6,3.6c0.2,1,0.6,2.1,1.2,3c1.2,1.8,1.7,4,2.9,5.8c1,1.6-0.8,3.5,0.9,4.8
			c0.4,0.3,0.6,0.8,1,1.2c-1.4,1.1-3.1,0.1-4.6,0.6c-0.8,0.6,0.4,0.7,0.3,0.9c0.5,1.1-0.4,1.4-0.8,1.6c-3.4,1.8-6.7,4-10.3,5.2
			c-5.2,1.8-10.4,4-15.6,5.7c-9.2,3.1-18.5,6.1-27.5,9.5c-7.5,2.9-15.2,5.1-22.7,7.9c-1.4-0.5-1.5-2-2.2-3c-0.6,1.8-2.3,0.9-3.4,1.3
			c-3.7,1.1-7.3,2.6-11.4,2.9c-3.2,0.2-6.4,1.3-9.5,2.3c-0.7,0.2-1.5,0.7-2.2,0.6c-2.7-0.5-4.9,1.5-7.6,1.1
			c-3.9,2.1-8.2,2.8-12.4,3.8c-4.1,1-7.9,3-12.2,3.1c-4.4,2.7-9.7,1.9-14.4,3.9c-1.8,0.8-3.6,1.7-5.6,2.3
			C227.8,476.8,225.6,477.8,223.4,478.8z"/>
		<path class="st1" d="M390.7,357.2c1,2.3,1.8,4.6,2.9,6.8c0.5,1,0.5,2,0.3,2.8c-1,3.9-2.3,7.7-4.4,11.1c-1.6,2.6-3.5,5.2-4.9,8
			c-0.8,1.6-2.1,2.1-3.2,2.9c-2.1-2.8-1.8-6.5-3.5-9.5c-0.8-1.5,0.5-3,1.2-3.9c3.3-4.4,5.4-9.5,8.7-13.9c-0.4-1.1-2.2,0.1-2.1-1.9
			c-2.3,4-5,6.6-9.6,7.4c-0.2-3.1-0.5-6.2-1.5-8.8c2.2-2.2,4.1-4.1,5.9-5.9C383.2,355.1,387.2,355.7,390.7,357.2z"/>
		<path class="st2" d="M325.7,424.3c2.4,2.4,5.2,1.6,7.6,2.3c2.1,0.6,4.7-0.5,7-1.5c1.4,0.3-0.1,2.5,1.9,2.3
			c-6.2,4.3-13.3,5.7-20,8.6c-0.7-2-1.5-4.1-2.3-6.3C321.5,427.6,324.2,427.2,325.7,424.3z"/>
	</g>
</g>
</svg>
